<svg width="48" height="48" viewBox="0 0 48 48" fill="none" xmlns="http://www.w3.org/2000/svg">
    <path fill-rule="evenodd" clip-rule="evenodd"
        d="M38.9411 5.7573C38.1601 4.97625 36.8938 4.97625 36.1127 5.7573L24.0919 17.7781L12.0711 5.7573C11.29 4.97625 10.0237 4.97625 9.24264 5.7573L6.41422 8.58573C5.63317 9.36678 5.63317 10.6331 6.41422 11.4142L18.435 23.435L6.41422 35.4558C5.63317 36.2368 5.63317 37.5032 6.41422 38.2842L9.24265 41.1126C10.0237 41.8937 11.29 41.8937 12.0711 41.1126L24.0919 29.0918L36.1127 41.1126C36.8937 41.8937 38.1601 41.8937 38.9411 41.1126L41.7696 38.2842C42.5506 37.5032 42.5506 36.2368 41.7696 35.4558L29.7487 23.435L41.7696 11.4141C42.5506 10.6331 42.5506 9.36677 41.7696 8.58572L38.9411 5.7573Z"
        fill="#FFFFFF" />
</svg>