<svg width="70" height="70" viewBox="0 0 70 70" fill="none" xmlns="http://www.w3.org/2000/svg">
<path fill-rule="evenodd" clip-rule="evenodd" d="M25.8076 27.2218C25.4171 27.6124 25.4171 28.2455 25.8076 28.636L32.1716 35L25.8076 41.364C25.4171 41.7545 25.4171 42.3877 25.8076 42.7782L27.2218 44.1924C27.6123 44.5829 28.2455 44.5829 28.636 44.1924L35 37.8284L41.3639 44.1924C41.7545 44.5829 42.3876 44.5829 42.7782 44.1924L44.1924 42.7782C44.5829 42.3877 44.5829 41.7545 44.1924 41.364L37.8284 35L44.1924 28.636C44.5829 28.2455 44.5829 27.6124 44.1924 27.2218L42.7782 25.8076C42.3876 25.4171 41.7545 25.4171 41.3639 25.8076L35 32.1716L28.636 25.8076C28.2455 25.4171 27.6123 25.4171 27.2218 25.8076L25.8076 27.2218Z" fill="#999999"/>
</svg>
