<svg width="70" height="70" viewBox="0 0 70 70" fill="none" xmlns="http://www.w3.org/2000/svg">
<path d="M22.5 22.5C22.5 22.0398 22.8731 21.6667 23.3333 21.6667L46.6667 21.6667C47.1269 21.6667 47.5 22.0398 47.5 22.5V24.1667C47.5 24.6269 47.1269 25 46.6667 25L23.3333 25C22.8731 25 22.5 24.6269 22.5 24.1667V22.5Z" fill="#999999"/>
<path d="M22.5 34.1667C22.5 33.7064 22.8731 33.3334 23.3333 33.3334H38.3333C38.7936 33.3334 39.1667 33.7064 39.1667 34.1667V35.8334C39.1667 36.2936 38.7936 36.6667 38.3333 36.6667H23.3333C22.8731 36.6667 22.5 36.2936 22.5 35.8334V34.1667Z" fill="#999999"/>
<path d="M22.5 45.8334C22.5 45.3731 22.8731 45 23.3333 45H46.6667C47.1269 45 47.5 45.3731 47.5 45.8334V47.5C47.5 47.9603 47.1269 48.3334 46.6667 48.3334H23.3333C22.8731 48.3334 22.5 47.9603 22.5 47.5V45.8334Z" fill="#999999"/>
<path d="M42.3346 35.8662C41.6679 35.4813 41.6679 34.519 42.3346 34.1341L49.3346 30.0927C50.0013 29.7078 50.8346 30.1889 50.8346 30.9587L50.8346 39.0416C50.8346 39.8114 50.0013 40.2925 49.3346 39.9076L42.3346 35.8662Z" fill="#999999"/>
</svg>
