<svg width="84" height="84" viewBox="0 0 84 84" fill="none" xmlns="http://www.w3.org/2000/svg">
<circle cx="42" cy="42" r="42" transform="rotate(-180 42 42)" fill="#282828"/>
<path d="M57 57C57 57.5523 56.5523 58 56 58L28 58C27.4477 58 27 57.5523 27 57L27 55C27 54.4477 27.4477 54 28 54L56 54C56.5523 54 57 54.4477 57 55L57 57Z" fill="#999999"/>
<path d="M57 43C57 43.5523 56.5523 44 56 44L38 44C37.4477 44 37 43.5523 37 43L37 41C37 40.4477 37.4477 40 38 40L56 40C56.5523 40 57 40.4477 57 41L57 43Z" fill="#999999"/>
<path d="M57 29C57 29.5523 56.5523 30 56 30L28 30C27.4477 30 27 29.5523 27 29L27 27C27 26.4477 27.4477 26 28 26L56 26C56.5523 26 57 26.4477 57 27L57 29Z" fill="#999999"/>
<path d="M20.5 42.866C19.8333 42.4811 19.8333 41.5189 20.5 41.134L29.5 35.9378C30.1667 35.5529 31 36.034 31 36.8038L31 47.1962C31 47.966 30.1667 48.4471 29.5 48.0622L20.5 42.866Z" fill="#999999"/>
</svg>
