<svg width="70" height="70" viewBox="0 0 70 70" fill="none" xmlns="http://www.w3.org/2000/svg">
<path d="M22.5 22.5C22.5 22.0398 22.8731 21.6667 23.3333 21.6667L46.6667 21.6667C47.1269 21.6667 47.5 22.0398 47.5 22.5V24.1667C47.5 24.6269 47.1269 25 46.6667 25L23.3333 25C22.8731 25 22.5 24.6269 22.5 24.1667V22.5Z" fill="#999999"/>
<path d="M22.5 34.1667C22.5 33.7064 22.8731 33.3334 23.3333 33.3334H38.3333C38.7936 33.3334 39.1667 33.7064 39.1667 34.1667V35.8334C39.1667 36.2936 38.7936 36.6667 38.3333 36.6667H23.3333C22.8731 36.6667 22.5 36.2936 22.5 35.8334V34.1667Z" fill="#999999"/>
<path d="M22.5 45.8334C22.5 45.3731 22.8731 45 23.3333 45H46.6667C47.1269 45 47.5 45.3731 47.5 45.8334V47.5C47.5 47.9603 47.1269 48.3334 46.6667 48.3334H23.3333C22.8731 48.3334 22.5 47.9603 22.5 47.5V45.8334Z" fill="#999999"/>
<path d="M52.6667 34.134C53.3334 34.5189 53.3334 35.4811 52.6667 35.866L45.6667 39.9075C45 40.2924 44.1667 39.8112 44.1667 39.0414L44.1667 30.9585C44.1667 30.1887 45 29.7076 45.6667 30.0925L52.6667 34.134Z" fill="#999999"/>
</svg>
