<svg width="128" height="28" viewBox="0 0 128 28" fill="none" xmlns="http://www.w3.org/2000/svg">
<path d="M31.5562 23.5676C30.3072 23.5676 29.1572 23.3544 28.1062 22.9279C27.0552 22.5014 26.1337 21.9074 25.3417 21.1458C24.5649 20.3842 23.9556 19.4932 23.5139 18.4727C23.0722 17.4369 22.8513 16.325 22.8513 15.1369C22.8513 13.9489 23.0646 12.8522 23.491 11.8469C23.9328 10.8264 24.542 9.93535 25.3188 9.17377C26.0956 8.4122 27.0095 7.82578 28.0605 7.41453C29.1115 6.98804 30.2615 6.7748 31.5105 6.7748C32.7595 6.7748 33.9094 6.98804 34.9604 7.41453C36.0114 7.82578 36.9253 8.4122 37.7021 9.17377C38.4789 9.93535 39.0806 10.8264 39.5071 11.8469C39.9488 12.8674 40.1696 13.9717 40.1696 15.1598C40.1696 16.3479 39.9488 17.4521 39.5071 18.4727C39.0806 19.4932 38.4789 20.3918 37.7021 21.1686C36.9253 21.9302 36.0114 22.5243 34.9604 22.9507C33.9247 23.362 32.7899 23.5676 31.5562 23.5676ZM31.5105 19.912C32.4244 19.912 33.2164 19.714 33.8866 19.318C34.5568 18.922 35.0747 18.366 35.4402 17.6502C35.8058 16.9343 35.9886 16.0965 35.9886 15.1369C35.9886 14.4363 35.8819 13.7966 35.6687 13.2178C35.4707 12.639 35.1737 12.1439 34.7776 11.7327C34.3816 11.3062 33.9094 10.9787 33.3611 10.7502C32.8128 10.5218 32.1959 10.4075 31.5105 10.4075C30.5966 10.4075 29.8045 10.6055 29.1343 11.0016C28.4642 11.3824 27.9463 11.9307 27.5807 12.6466C27.2152 13.3625 27.0324 14.1926 27.0324 15.1369C27.0324 15.8681 27.1314 16.5306 27.3294 17.1247C27.5426 17.7035 27.8473 18.2061 28.2433 18.6326C28.6393 19.0438 29.1115 19.3637 29.6598 19.5922C30.2082 19.8054 30.8251 19.912 31.5105 19.912Z" fill="white"/>
<path d="M48.5894 23.4991C47.8735 23.4991 47.211 23.3696 46.6017 23.1107C45.9924 22.8517 45.4898 22.5014 45.0938 22.0597C44.6978 21.6027 44.454 21.0773 44.3627 20.4832V15.0456C44.454 14.4515 44.6978 13.9184 45.0938 13.4462C45.505 12.9588 46.0077 12.578 46.6017 12.3039C47.211 12.0145 47.8735 11.8698 48.5894 11.8698C49.6709 11.8698 50.6228 12.1211 51.4453 12.6237C52.2678 13.1111 52.9076 13.7966 53.3645 14.68C53.8367 15.5634 54.0728 16.5687 54.0728 17.6958C54.0728 18.8078 53.8367 19.8054 53.3645 20.6889C52.9076 21.5571 52.2678 22.2425 51.4453 22.7451C50.6228 23.2478 49.6709 23.4991 48.5894 23.4991ZM47.8355 19.9577C48.2772 19.9577 48.6656 19.8587 49.0007 19.6607C49.3358 19.4627 49.5947 19.1962 49.7775 18.8611C49.9603 18.5107 50.0517 18.1147 50.0517 17.673C50.0517 17.2313 49.9603 16.8429 49.7775 16.5078C49.5947 16.1727 49.3358 15.9061 49.0007 15.7081C48.6656 15.5101 48.2848 15.4111 47.8583 15.4111C47.4471 15.4111 47.0739 15.5101 46.7388 15.7081C46.4037 15.8909 46.1448 16.1575 45.962 16.5078C45.7792 16.8429 45.6878 17.2313 45.6878 17.673C45.6878 18.1147 45.7792 18.5107 45.962 18.8611C46.1448 19.1962 46.3961 19.4627 46.7159 19.6607C47.051 19.8587 47.4242 19.9577 47.8355 19.9577ZM41.9408 28V12.0982H45.9163V14.9085L45.2537 17.6045L45.8249 20.3233V28H41.9408Z" fill="white"/>
<path d="M61.3506 23.5219C60.1016 23.5219 58.9973 23.2782 58.0377 22.7908C57.0781 22.2882 56.3242 21.5951 55.7758 20.7117C55.2275 19.8283 54.9533 18.8154 54.9533 17.673C54.9533 16.5459 55.2199 15.5482 55.753 14.68C56.2861 13.7966 57.0096 13.1035 57.9235 12.6009C58.8526 12.083 59.896 11.8241 61.0536 11.8241C62.1807 11.8241 63.1784 12.0678 64.0466 12.5552C64.93 13.0274 65.6154 13.6899 66.1028 14.5429C66.6055 15.3806 66.8568 16.3402 66.8568 17.4217C66.8568 17.6502 66.8416 17.8862 66.8111 18.1299C66.7959 18.3584 66.7502 18.625 66.674 18.9296L56.8268 18.9753V16.4164L65.0975 16.3479L63.3154 17.4674C63.3002 16.8429 63.2088 16.3326 63.0413 15.9366C62.8737 15.5253 62.63 15.2131 62.3102 14.9999C61.9903 14.7866 61.5867 14.68 61.0993 14.68C60.5966 14.68 60.1625 14.8018 59.797 15.0456C59.4314 15.2893 59.1496 15.632 58.9516 16.0737C58.7536 16.5154 58.6546 17.0485 58.6546 17.673C58.6546 18.3127 58.7612 18.8611 58.9744 19.318C59.1877 19.7597 59.4923 20.0948 59.8883 20.3233C60.2844 20.5518 60.7718 20.666 61.3506 20.666C61.8989 20.666 62.3787 20.5746 62.79 20.3918C63.2164 20.2091 63.5972 19.9273 63.9323 19.5465L66.0114 21.6256C65.4631 22.2501 64.7929 22.7223 64.0009 23.0421C63.2241 23.362 62.3406 23.5219 61.3506 23.5219Z" fill="white"/>
<path d="M75.6007 23.2706V16.9647C75.6007 16.4469 75.4484 16.0432 75.1438 15.7538C74.8392 15.4492 74.4507 15.2969 73.9786 15.2969C73.6587 15.2969 73.3693 15.3654 73.1104 15.5025C72.8667 15.6396 72.6763 15.83 72.5392 16.0737C72.4021 16.3174 72.3336 16.6144 72.3336 16.9647L70.7799 16.2336C70.7799 15.3349 70.9779 14.5658 71.374 13.926C71.77 13.2711 72.3107 12.7684 72.9961 12.4181C73.6968 12.0525 74.4888 11.8698 75.3723 11.8698C76.1795 11.8698 76.8954 12.0602 77.5199 12.4409C78.1596 12.8065 78.6623 13.3015 79.0278 13.926C79.3934 14.5505 79.5762 15.2588 79.5762 16.0508V23.2706H75.6007ZM68.3581 23.2706V12.0982H72.3336V23.2706H68.3581Z" fill="white"/>
<path d="M87.2074 23.5219C86.0193 23.5219 84.9455 23.2706 83.9859 22.768C83.0415 22.2653 82.2952 21.5723 81.7468 20.6889C81.1985 19.8054 80.9243 18.8078 80.9243 17.6958C80.9243 16.5687 81.1985 15.5634 81.7468 14.68C82.3104 13.7966 83.0644 13.1035 84.0087 12.6009C84.9683 12.083 86.0498 11.8241 87.2531 11.8241C88.1213 11.8241 88.9133 11.9688 89.6292 12.2582C90.3451 12.5476 91 12.9817 91.5941 13.5605L89.0809 16.0737C88.8524 15.8452 88.5858 15.6777 88.2812 15.571C87.9918 15.4492 87.6491 15.3883 87.2531 15.3883C86.8266 15.3883 86.4382 15.4873 86.0879 15.6853C85.7528 15.8681 85.4786 16.127 85.2653 16.4621C85.0673 16.7972 84.9683 17.2008 84.9683 17.673C84.9683 18.1299 85.0673 18.5336 85.2653 18.8839C85.4786 19.219 85.7528 19.4856 86.0879 19.6836C86.4382 19.8816 86.8266 19.9806 87.2531 19.9806C87.6796 19.9806 88.0451 19.912 88.3497 19.775C88.6544 19.6379 88.9209 19.4399 89.1494 19.1809L91.6855 21.6941C91.061 22.3034 90.3832 22.7603 89.652 23.065C88.9362 23.3696 88.1213 23.5219 87.2074 23.5219Z" fill="white"/>
<path d="M98.3405 23.5219C97.1372 23.5219 96.0634 23.2706 95.119 22.768C94.1899 22.2501 93.4511 21.5494 92.9028 20.666C92.3545 19.7673 92.0803 18.7621 92.0803 17.6502C92.0803 16.5382 92.3468 15.5482 92.8799 14.68C93.4283 13.7966 94.1746 13.1035 95.119 12.6009C96.0634 12.083 97.1296 11.8241 98.3176 11.8241C99.5057 11.8241 100.564 12.083 101.493 12.6009C102.438 13.1035 103.184 13.7966 103.732 14.68C104.281 15.5482 104.555 16.5382 104.555 17.6502C104.555 18.7621 104.281 19.7673 103.732 20.666C103.199 21.5494 102.461 22.2501 101.516 22.768C100.587 23.2706 99.5285 23.5219 98.3405 23.5219ZM98.3176 19.9806C98.7593 19.9806 99.1401 19.8892 99.46 19.7064C99.7951 19.5084 100.054 19.2342 100.237 18.8839C100.42 18.5336 100.511 18.1299 100.511 17.673C100.511 17.2161 100.412 16.82 100.214 16.4849C100.031 16.1346 99.7799 15.8681 99.46 15.6853C99.1401 15.4873 98.7593 15.3883 98.3176 15.3883C97.8911 15.3883 97.5103 15.4873 97.1753 15.6853C96.8402 15.8833 96.5812 16.1575 96.3984 16.5078C96.2157 16.8429 96.1243 17.2389 96.1243 17.6958C96.1243 18.1376 96.2157 18.5336 96.3984 18.8839C96.5812 19.2342 96.8402 19.5084 97.1753 19.7064C97.5103 19.8892 97.8911 19.9806 98.3176 19.9806Z" fill="white"/>
<path d="M106.132 23.2706V12.0982H110.108V23.2706H106.132ZM110.108 17.1932L108.325 15.6853C108.767 14.4211 109.354 13.4691 110.085 12.8294C110.816 12.1896 111.768 11.8698 112.941 11.8698C113.474 11.8698 113.931 11.9383 114.312 12.0754C114.708 12.2125 115.043 12.4257 115.317 12.7151L113.009 15.7995C112.887 15.6624 112.712 15.5558 112.484 15.4796C112.27 15.3883 112.027 15.3426 111.753 15.3426C111.235 15.3426 110.831 15.5025 110.542 15.8224C110.252 16.127 110.108 16.5839 110.108 17.1932Z" fill="white"/>
<path d="M120.591 23.4991C119.51 23.4991 118.558 23.2478 117.735 22.7451C116.913 22.2425 116.265 21.5571 115.793 20.6889C115.336 19.8054 115.108 18.8078 115.108 17.6958C115.108 16.5687 115.336 15.5634 115.793 14.68C116.265 13.7966 116.905 13.1111 117.712 12.6237C118.535 12.1211 119.494 11.8698 120.591 11.8698C121.292 11.8698 121.947 11.9992 122.556 12.2582C123.165 12.5019 123.676 12.8522 124.087 13.3091C124.498 13.7661 124.742 14.284 124.818 14.8628V20.3233C124.742 20.9021 124.498 21.4352 124.087 21.9226C123.676 22.41 123.165 22.7984 122.556 23.0878C121.947 23.362 121.292 23.4991 120.591 23.4991ZM121.299 19.9577C121.741 19.9577 122.122 19.8663 122.442 19.6836C122.762 19.4856 123.013 19.219 123.196 18.8839C123.394 18.5336 123.493 18.1299 123.493 17.673C123.493 17.2313 123.401 16.8429 123.219 16.5078C123.036 16.1727 122.777 15.9061 122.442 15.7081C122.122 15.5101 121.749 15.4111 121.322 15.4111C120.896 15.4111 120.515 15.5101 120.18 15.7081C119.86 15.9061 119.601 16.1803 119.403 16.5306C119.22 16.8657 119.129 17.2465 119.129 17.673C119.129 18.1147 119.22 18.5107 119.403 18.8611C119.586 19.1962 119.845 19.4627 120.18 19.6607C120.515 19.8587 120.888 19.9577 121.299 19.9577ZM127.24 23.2706H123.333V20.2776L123.904 17.5359L123.264 14.8399V6.61487H127.24V23.2706Z" fill="white"/>
<path fill-rule="evenodd" clip-rule="evenodd" d="M18.0405 13.4015H18.0399C18.0422 13.5117 18.0377 13.6228 18.0263 13.7343L17.2502 21.3007C17.1666 22.1157 16.7201 22.8496 16.0348 23.2984L10.5103 26.9165C9.60533 27.5091 8.43517 27.5091 7.53021 26.9165L2.00573 23.2984C1.32038 22.8496 0.873874 22.1157 0.790287 21.3007L0.0142458 13.7343C0.00281042 13.6228 -0.00166576 13.5117 0.000548345 13.4015H0C0 8.97937 2.41866 7.23466 4.50888 5.72689C4.71846 5.5757 4.92474 5.4269 5.12496 5.27802C4.74959 6.02553 4.44664 7.07176 5.32029 7.07176C6.97689 7.07176 8.44411 2.47948 8.94641 0C12.6771 2.86991 18.0405 8.82652 18.0405 13.4015ZM14.767 14.3656L14.6981 15.7248C15.0182 15.6684 15.3367 15.6073 15.6535 15.5415C15.9043 15.9743 16.0479 16.477 16.0479 17.0133C16.0479 18.4528 15.0131 19.6506 13.6468 19.9034L12.8833 21.3956L12.9567 19.9487C11.404 19.8697 10.1693 18.5857 10.1693 17.0133C10.1693 16.7275 10.21 16.4513 10.2861 16.1901C11.5487 16.1443 12.7926 16.0254 14.0139 15.8376L14.767 14.3656ZM2.15289 17.0133C2.15289 16.4772 2.29641 15.9746 2.54714 15.5419C4.28879 15.9036 6.0822 16.124 7.91485 16.1906C7.99082 16.4517 8.03155 16.7278 8.03155 17.0133C8.03155 18.6367 6.71556 19.9527 5.09222 19.9527C3.46887 19.9527 2.15289 18.6367 2.15289 17.0133Z" fill="white"/>
</svg>
