<svg width="360" height="360" viewBox="0 0 360 360" fill="none" xmlns="http://www.w3.org/2000/svg">
<rect width="360" height="360" rx="80" fill="#0A0A20"/>
<path fill-rule="evenodd" clip-rule="evenodd" d="M269.059 162.966H269.054C269.075 164.051 269.031 165.146 268.919 166.243L261.277 240.751C260.454 248.776 256.057 256.002 249.308 260.422L194.908 296.049C185.997 301.886 174.474 301.886 165.563 296.049L111.163 260.422C104.414 256.002 100.017 248.776 99.1942 240.751L91.5524 166.243C91.4398 165.146 91.3957 164.051 91.4175 162.966H91.4121C91.4121 119.421 115.229 102.241 135.812 87.3933L135.812 87.3932C137.875 85.9045 139.907 84.4393 141.878 82.9733C138.182 90.334 135.199 100.636 143.802 100.636C160.114 100.636 174.562 55.4157 179.508 31C216.245 59.2603 269.059 117.916 269.059 162.966ZM236.824 172.465L236.147 185.826C239.299 185.271 242.435 184.669 245.553 184.022C248.024 188.284 249.438 193.234 249.438 198.514C249.438 212.685 239.254 224.477 225.806 226.972L218.276 241.69L218.999 227.42C203.709 226.643 191.55 213.998 191.55 198.514C191.55 195.701 191.951 192.981 192.7 190.409C205.137 189.957 217.391 188.786 229.421 186.935L236.824 172.465ZM112.612 198.514C112.612 193.235 114.025 188.286 116.494 184.025C133.644 187.587 151.304 189.757 169.351 190.413C170.099 192.984 170.5 195.702 170.5 198.514C170.5 214.499 157.541 227.458 141.556 227.458C125.57 227.458 112.612 214.499 112.612 198.514Z" fill="#16B8F3"/>
</svg>
